<?xml version="1.0" encoding="UTF-8"?>
<!DOCTYPE svg PUBLIC "-//W3C//DTD SVG 1.1//EN" "http://www.w3.org/Graphics/SVG/1.1/DTD/svg11.dtd">
<!-- Creator: CorelDRAW -->
<svg xmlns="http://www.w3.org/2000/svg" xml:space="preserve" width="400px" height="256px" version="1.1" style="shape-rendering:geometricPrecision; text-rendering:geometricPrecision; image-rendering:optimizeQuality; fill-rule:evenodd; clip-rule:evenodd"
viewBox="0 0 400 256.11"
 xmlns:xlink="http://www.w3.org/1999/xlink"
 xmlns:xodm="http://www.corel.com/coreldraw/odm/2003">
 <defs>
  <style type="text/css">
   <![CDATA[
    .fil0 {fill:#FFCC29}
   ]]>
  </style>
 </defs>
 <g id="Camada_x0020_1">
  <metadata id="CorelCorpID_0Corel-Layer"/>
  <g id="_2998801739376">
   <path class="fil0" d="M80.17 1.09c9.81,30.29 21.06,61.28 31.97,91.6 2.85,7.95 5.38,15.13 8.25,23.35 9.81,28.09 11.09,20.01 1.72,45.82 -2.52,6.93 -4.65,16.49 -8.32,22.4l-62.32 -180.38 -51.47 0.32c15.58,42.58 29.24,84.34 44.51,126.47 7.77,21.43 14.17,42.14 22.08,63.26l22.12 63.13 47.01 -0.14c2.29,-3.19 7,-18.6 8.84,-23.6 2.33,-6.29 5.64,-18.25 8.25,-23.17 4.93,6.08 11.07,35.19 16.42,44.02l47.04 -0.07c5.35,-17.53 12.5,-34.86 18.34,-52.39l54.15 -153.95c1.15,-1.95 0.16,-1.01 2.06,-2.16l109.1 0.11 0.08 -44.71 -218.36 -0.06 0.51 44.67 59.43 -0.12c-1.69,8.22 -29.93,86.64 -35.26,102l-12.2 32.78 -62.15 -179.27 -51.8 0.09z"/>
   <path class="fil0" d="M320.31 51.81c-2.33,3.83 -6.68,17.88 -8.47,23l-36.03 102.92c-0.87,4.42 0.25,63.19 -0.45,76.46l45.15 -0.01 -0.2 -202.37z"/>
  </g>
 </g>
</svg>
